<svg xmlns="http://www.w3.org/2000/svg" viewBox="0 0 800.52 802.82"><title>Element 3</title><g id="Ebene_2" data-name="Ebene 2"><g id="Ebene_1-2" data-name="Ebene 1"><path d="M362,273.58c66.1-25.94,148.86,19,168,91,14.39,54.07-4.07,110.85-48.87,143.35-46.78,33.94-96.92,37-147.69,9.18-47.55-26-73.12-79.06-66.1-134.33.83-6.49-2-17.8,12.25-12.9,28.05,9.62,53.28,4.45,73.4-17.6C374.53,328.62,374.15,301.51,362,273.58Zm-38.83-73c23.42,2.93,44.12-11.85,50.93-36.34,14.83-53.39,35-66.93,89.81-60.21C491,107.33,514.19,91,518.8,65.28,523,42.19,505.91,17.22,482.47,12,457,6.37,433.25,21.61,425.75,48.34c-15,53.31-35,66.45-89.83,59-29-3.94-53.55,17-53.81,46C281.89,177.63,299.2,197.57,323.14,200.56Zm-1.25,589.57c24.13,3.53,45.46-11.53,52.29-36.9,13.86-51.53,36.28-66.67,88.47-59.77,28.85,3.82,51.81-12.18,56.15-39.11,3.62-22.51-13.12-47.36-35.18-52.23-27-6-50.41,8.93-58,36.89-14.12,51.73-36.15,66.2-88.35,58-29.47-4.62-55.24,17.19-55.16,46.68C282.14,767.26,298.88,786.77,321.89,790.13ZM11.12,327.87c-.39,23.53,11.94,39.69,36.52,46.45,27.52,7.57,52.33,18,60.08,49.4,3.37,13.66,1.72,27.08-.62,40.8-4.29,25.1,13.05,49.69,37.12,54.3,25.38,4.87,50.41-12.3,55.51-38.1s-11.8-47.94-42.74-55.67c-41.18-10.3-58-33.34-54.86-75.36.44-5.87,1.84-11.66,2.21-17.53C106.07,305,85,282.67,57.68,282.61,31.17,282.55,11.55,301.62,11.12,327.87Zm268,251.2c-13-.81-23.82,5.1-34.73,11.4-37.87,21.86-67.52,15.74-94.41-18.86-3.6-4.64-6.88-9.67-11.15-13.6-25.92-23.91-67.76-11.53-76.46,22.45-5.07,19.79.36,36.58,16.27,48.86,16.66,12.85,35.47,13.31,53.32,2.85,20.84-12.21,41.72-22.62,66.43-13.78,18,6.45,29.3,21,40.58,35.7,13.46,17.6,33.07,23,52.34,16.29s31-22.51,31.39-42.7C323.21,601.46,304.7,580.66,279.1,579.07Zm-59-290.29c3.73-16.36-1.4-30.34-9.78-44.55-22-37.44-16.06-65.82,18-92.69,3.58-2.83,7.54-5.23,10.95-8.25,18.73-16.59,21.71-44,7.09-63.83-13.61-18.46-41.51-24-61.62-12.22-20.35,11.92-28.43,37.49-18.83,59.65,28.25,65.23,28.25,65.23-23.18,116.28-13.54,13.44-18.25,35.27-10.52,52.38,8,17.65,21.7,27.32,41.46,27.53C196.56,323.47,215.32,309.71,220.09,288.78ZM624.48,657.4c-17.24-33.48-12.37-59.37,15.93-83.87,4.44-3.84,9.42-7,14-10.77,16.92-13.88,22.59-35.19,14.69-54.69-7.62-18.81-27-30.94-46.66-29.25C600.33,480.73,583.49,496,579.22,518c-2.53,13,1.91,24.34,8.25,35.39,25.5,44.38,20.46,69.38-20.11,101.46a80.82,80.82,0,0,0-10.31,9c-13.54,15.07-15.43,39.91-4.58,56.55C563.7,737.64,586,745.66,606,739.64c19.24-5.81,32.15-23.48,32.37-46.09C640.13,680.37,630.7,669.47,624.48,657.4ZM477.27,177.31c1.44,27.3,24.26,46.67,51.81,44.36,10.92-.91,19.56-6.61,28.68-11.74,36.58-20.53,65.49-14.74,91.31,18,2,2.56,3.77,5.34,5.82,7.88,17.68,21.93,44.82,26.53,66,11.22,19.8-14.29,25.17-42.59,12-63-14.25-22-40.66-27.75-65.25-14.18C619,196.69,598,192.39,562.26,147.9c-9.56-11.9-21.27-19.1-37-18.57C497.74,129,475.87,150.82,477.27,177.31ZM685.82,303.5a47.57,47.57,0,0,0-54-17.78c-19.11,6.44-31,24.08-30.7,45.55s12.75,37.17,35.11,44c56.15,17.1,66.39,32.59,60.22,91.07C693.53,493.64,713,518.2,739,520.11a47.58,47.58,0,0,0,50.66-39.76c4.11-23.94-11.92-46.07-38.76-53.52-47.9-13.29-62.11-32-58.87-80C693.9,333.3,695.86,317.69,685.82,303.5ZM482.59,769.85c1-17.85-15.79-35.89-33.86-36.33-17.13-.42-34,15.54-35,33.16-1,18.28,15.17,35.63,33.76,36.13C464.85,803.28,481.58,787.55,482.59,769.85ZM768,320c-18.63-.71-35.58,15.54-35.57,34.08,0,17.71,15.75,33.1,34,33.26,19,.18,33.76-14,34.06-32.68A33.88,33.88,0,0,0,768,320ZM174.85,660.16c-18.95.07-33.49,14.4-33.69,33.2A33.75,33.75,0,0,0,176,727.63c18.67-.56,32.76-15.52,32.47-34.47C208.19,673.93,194.08,660.09,174.85,660.16ZM354.05,0c-18.6-1-35.47,15.1-35.62,34-.14,18.66,14.38,33.3,33.31,33.59,19.73.31,33.54-12.82,34-32.29C386.17,16,372.75,1,354.05,0ZM67.43,448.87c.14-19.39-15.76-35.08-34.86-34.38A33.93,33.93,0,0,0,0,449.26c.34,18.61,15.54,33.61,33.93,33.48S67.29,467.37,67.43,448.87Zm660,178.55c.09-19.35-15.68-34.52-35.3-33.93-18.9.56-32.6,15.22-32.25,34.49.33,18.81,15.28,33.56,33.74,33.3C711.74,661,727.33,645.41,727.42,627.42ZM626.57,74.08c-18.52-.42-34.16,14.11-34.83,32.35a33.73,33.73,0,0,0,34.07,35.06c18.41-.08,34-15.29,34.08-33.3S644.73,74.49,626.57,74.08ZM141.32,176.84c.9-18.87-14.86-35.36-33.91-35.47-18.61-.11-33.29,14.5-33.54,33.4-.26,19.57,13.08,33.53,32.44,33.94C125.43,209.12,140.44,195.46,141.32,176.84Z"/></g></g></svg>